<svg width="106" height="106" viewBox="0 0 106 106" fill="none" xmlns="http://www.w3.org/2000/svg">
<path d="M0 0H106V106H0V0Z" fill="white"/>
<circle cx="53.2693" cy="53.2693" r="25.2693" fill="#F6C941"/>
<path d="M38.2389 61.707V41.1777H45.8719C47.2681 41.1777 48.4989 41.4349 49.5644 41.9493C50.6483 42.4453 51.4934 43.1801 52.0996 44.1538C52.7058 45.1091 53.009 46.2756 53.009 47.6534C53.009 49.068 52.6691 50.2712 51.9894 51.2633C51.328 52.2553 50.4279 52.9901 49.2889 53.4677L54.001 61.707H49.7573L44.7146 52.6962L47.1395 54.1291H41.9865V61.707H38.2389ZM41.9865 50.8224H45.927C46.6067 50.8224 47.1946 50.6938 47.6906 50.4366C48.1866 50.161 48.5724 49.7844 48.848 49.3068C49.1235 48.8291 49.2613 48.278 49.2613 47.6534C49.2613 47.0104 49.1235 46.4593 48.848 46C48.5724 45.5224 48.1866 45.155 47.6906 44.8978C47.1946 44.6222 46.6067 44.4845 45.927 44.4845H41.9865V50.8224ZM56.154 67.2183V46.7165H59.5434V49.6926L59.2127 48.9485C59.7271 48.1402 60.4252 47.5156 61.307 47.0747C62.1888 46.6155 63.2084 46.3858 64.3657 46.3858C65.7803 46.3858 67.0571 46.7349 68.196 47.433C69.335 48.131 70.2352 49.068 70.8965 50.2437C71.5763 51.4194 71.9161 52.7421 71.9161 54.2118C71.9161 55.6631 71.5854 56.9857 70.9241 58.1798C70.2627 59.3739 69.3626 60.32 68.2236 61.0181C67.0846 61.6978 65.7895 62.0377 64.3382 62.0377C63.2543 62.0377 62.2531 61.8264 61.3346 61.4039C60.4344 60.963 59.7179 60.3384 59.1852 59.5301L59.7639 58.8136V67.2183H56.154ZM63.9248 58.731C64.7515 58.731 65.4864 58.5381 66.1293 58.1523C66.7723 57.7665 67.2683 57.2338 67.6174 56.554C67.9848 55.8743 68.1685 55.0936 68.1685 54.2118C68.1685 53.33 67.9848 52.5584 67.6174 51.8971C67.2683 51.2173 66.7723 50.6846 66.1293 50.2988C65.4864 49.8946 64.7515 49.6926 63.9248 49.6926C63.1349 49.6926 62.4184 49.8855 61.7755 50.2712C61.1509 50.657 60.6548 51.199 60.2874 51.8971C59.9384 52.5768 59.7639 53.3483 59.7639 54.2118C59.7639 55.0936 59.9384 55.8743 60.2874 56.554C60.6548 57.2338 61.1509 57.7665 61.7755 58.1523C62.4184 58.5381 63.1349 58.731 63.9248 58.731Z" fill="white"/>
</svg>
